<mxfile host="app.diagrams.net" modified="2023-09-07T07:28:44.184Z" agent="Mozilla/5.0 (Windows NT 10.0; Win64; x64; rv:109.0) Gecko/20100101 Firefox/117.0" etag="SvZtmzKUDGBb9oeeSbrP" version="21.6.8" type="device" pages="2">
  <diagram id="icgWwZBAHs2G7HhvBJmb" name="CycleV">
    <mxGraphModel dx="2387" dy="685" grid="1" gridSize="10" guides="1" tooltips="1" connect="1" arrows="1" fold="1" page="1" pageScale="1" pageWidth="850" pageHeight="1100" math="0" shadow="0">
      <root>
        <mxCell id="0" />
        <mxCell id="1" parent="0" />
        <mxCell id="2cpJJtYgyLrUb1EqmkHA-13" value="" style="shape=flexArrow;endArrow=classic;html=1;rounded=0;exitX=0.75;exitY=0;exitDx=0;exitDy=0;fillColor=default;" parent="1" source="2cpJJtYgyLrUb1EqmkHA-6" edge="1">
          <mxGeometry width="50" height="50" relative="1" as="geometry">
            <mxPoint x="400" y="320" as="sourcePoint" />
            <mxPoint x="680" y="120" as="targetPoint" />
          </mxGeometry>
        </mxCell>
        <mxCell id="2cpJJtYgyLrUb1EqmkHA-11" value="" style="shape=flexArrow;endArrow=classic;html=1;rounded=0;entryX=0.25;entryY=0;entryDx=0;entryDy=0;fillColor=#FFFFFF;" parent="1" target="2cpJJtYgyLrUb1EqmkHA-6" edge="1">
          <mxGeometry width="50" height="50" relative="1" as="geometry">
            <mxPoint x="120" y="120" as="sourcePoint" />
            <mxPoint x="350" y="430" as="targetPoint" />
          </mxGeometry>
        </mxCell>
        <mxCell id="2cpJJtYgyLrUb1EqmkHA-1" value="&lt;div&gt;&lt;font style=&quot;font-size: 12px;&quot; data-font-src=&quot;https://fonts.googleapis.com/css?family=Inter&quot; face=&quot;Inter&quot;&gt;&lt;font style=&quot;font-size: 12px;&quot; data-font-src=&quot;https://fonts.googleapis.com/css?family=Inter&quot;&gt;&lt;font style=&quot;font-size: 12px;&quot; color=&quot;#ffffff&quot;&gt;&lt;font style=&quot;font-size: 12px;&quot; data-font-src=&quot;https://fonts.googleapis.com/css?family=Inter&quot;&gt;&lt;b&gt;Analyse des besoins&lt;/b&gt;&lt;/font&gt;&lt;/font&gt;&lt;/font&gt;&lt;/font&gt;&lt;/div&gt;&lt;div style=&quot;font-size: 10px;&quot;&gt;&lt;font style=&quot;font-size: 10px;&quot; data-font-src=&quot;https://fonts.googleapis.com/css?family=Inter&quot; face=&quot;Inter&quot; color=&quot;#070219&quot;&gt;&lt;i&gt;&lt;font style=&quot;font-size: 10px;&quot; data-font-src=&quot;https://fonts.googleapis.com/css?family=Inter&quot;&gt;&lt;font style=&quot;font-size: 10px;&quot;&gt;&lt;font style=&quot;font-size: 10px;&quot; data-font-src=&quot;https://fonts.googleapis.com/css?family=Inter&quot;&gt;Que veut le client ?&lt;/font&gt;&lt;/font&gt;&lt;/font&gt;&lt;b&gt;&lt;font style=&quot;font-size: 10px;&quot; data-font-src=&quot;https://fonts.googleapis.com/css?family=Inter&quot;&gt;&lt;font style=&quot;font-size: 10px;&quot;&gt;&lt;font style=&quot;font-size: 10px;&quot; data-font-src=&quot;https://fonts.googleapis.com/css?family=Inter&quot;&gt;&lt;br&gt;&lt;/font&gt;&lt;/font&gt;&lt;/font&gt;&lt;/b&gt;&lt;/i&gt;&lt;/font&gt;&lt;/div&gt;" style="rounded=1;whiteSpace=wrap;html=1;strokeWidth=0;strokeColor=#FF2453;fillColor=#FF2453;" parent="1" vertex="1">
          <mxGeometry x="80" y="160" width="160" height="50" as="geometry" />
        </mxCell>
        <mxCell id="2cpJJtYgyLrUb1EqmkHA-3" value="&lt;div&gt;&lt;font style=&quot;font-size: 12px;&quot; data-font-src=&quot;https://fonts.googleapis.com/css?family=Inter&quot; face=&quot;Inter&quot; color=&quot;#ffffff&quot;&gt;&lt;b&gt;Spécifications&lt;/b&gt;&lt;/font&gt;&lt;/div&gt;&lt;font data-font-src=&quot;https://fonts.googleapis.com/css?family=Inter&quot; size=&quot;1&quot; face=&quot;Inter&quot; color=&quot;#070219&quot;&gt;&lt;i&gt;&lt;font style=&quot;font-size: 10px;&quot; data-font-src=&quot;https://fonts.googleapis.com/css?family=Inter&quot;&gt;Que doit faire le produit ?&lt;/font&gt;&lt;/i&gt;&lt;/font&gt;" style="rounded=1;whiteSpace=wrap;html=1;strokeWidth=0;strokeColor=#FF2453;fillColor=#C7467B;" parent="1" vertex="1">
          <mxGeometry x="120" y="230" width="160" height="50" as="geometry" />
        </mxCell>
        <mxCell id="2cpJJtYgyLrUb1EqmkHA-16" style="edgeStyle=orthogonalEdgeStyle;rounded=0;orthogonalLoop=1;jettySize=auto;html=1;exitX=1;exitY=0.5;exitDx=0;exitDy=0;entryX=0;entryY=0.5;entryDx=0;entryDy=0;startArrow=block;startFill=1;strokeWidth=3;strokeColor=#9068A3;endArrow=block;endFill=1;" parent="1" source="2cpJJtYgyLrUb1EqmkHA-4" target="2cpJJtYgyLrUb1EqmkHA-8" edge="1">
          <mxGeometry relative="1" as="geometry" />
        </mxCell>
        <mxCell id="2cpJJtYgyLrUb1EqmkHA-4" value="&lt;div style=&quot;font-size: 10px;&quot;&gt;&lt;font style=&quot;font-size: 12px;&quot; face=&quot;Inter&quot; color=&quot;#ffffff&quot;&gt;&lt;b&gt;Conception générale&lt;/b&gt;&lt;/font&gt;&lt;i&gt;&lt;font style=&quot;font-size: 10px;&quot; face=&quot;Inter&quot; color=&quot;#070219&quot;&gt;&lt;br&gt;&lt;/font&gt;&lt;/i&gt;&lt;/div&gt;&lt;div style=&quot;font-size: 10px;&quot;&gt;&lt;i&gt;&lt;font style=&quot;font-size: 10px;&quot; face=&quot;Inter&quot; color=&quot;#070219&quot;&gt;Comment doit-il être fait ?&lt;/font&gt;&lt;font style=&quot;font-size: 10px;&quot; face=&quot;Inter&quot; color=&quot;#070219&quot;&gt;&lt;br&gt;&lt;/font&gt;&lt;/i&gt;&lt;/div&gt;" style="rounded=1;whiteSpace=wrap;html=1;strokeWidth=0;strokeColor=#FF2453;fillColor=#9068A3;" parent="1" vertex="1">
          <mxGeometry x="160" y="300" width="160" height="50" as="geometry" />
        </mxCell>
        <mxCell id="2cpJJtYgyLrUb1EqmkHA-5" value="&lt;font face=&quot;Inter&quot; color=&quot;#ffffff&quot;&gt;&lt;b&gt;Conception détaillée&lt;br&gt;&lt;/b&gt;&lt;/font&gt;" style="rounded=1;whiteSpace=wrap;html=1;strokeWidth=0;strokeColor=#FF2453;fillColor=#5889CB;" parent="1" vertex="1">
          <mxGeometry x="200" y="370" width="160" height="50" as="geometry" />
        </mxCell>
        <mxCell id="2cpJJtYgyLrUb1EqmkHA-6" value="&lt;font face=&quot;Inter&quot; color=&quot;#ffffff&quot;&gt;&lt;b&gt;Réalisation&lt;br&gt;&lt;/b&gt;&lt;/font&gt;" style="rounded=1;whiteSpace=wrap;html=1;strokeWidth=0;strokeColor=#FF2453;fillColor=#20ABF3;" parent="1" vertex="1">
          <mxGeometry x="320" y="455" width="160" height="50" as="geometry" />
        </mxCell>
        <mxCell id="2cpJJtYgyLrUb1EqmkHA-7" value="&lt;font face=&quot;Inter&quot; color=&quot;#ffffff&quot;&gt;&lt;b&gt;Tests unitaires&lt;br&gt;&lt;/b&gt;&lt;/font&gt;" style="rounded=1;whiteSpace=wrap;html=1;strokeWidth=0;strokeColor=#FF2453;fillColor=#5889CB;" parent="1" vertex="1">
          <mxGeometry x="440" y="370" width="160" height="50" as="geometry" />
        </mxCell>
        <mxCell id="2cpJJtYgyLrUb1EqmkHA-8" value="&lt;font face=&quot;Inter&quot; color=&quot;#ffffff&quot;&gt;&lt;b&gt;Tests d&#39;intégration&lt;br&gt;&lt;/b&gt;&lt;/font&gt;" style="rounded=1;whiteSpace=wrap;html=1;strokeWidth=0;strokeColor=#FF2453;fillColor=#9068A3;" parent="1" vertex="1">
          <mxGeometry x="480" y="300" width="160" height="50" as="geometry" />
        </mxCell>
        <mxCell id="2cpJJtYgyLrUb1EqmkHA-9" value="&lt;font face=&quot;Inter&quot; color=&quot;#ffffff&quot;&gt;&lt;b&gt;Tests de validation&lt;/b&gt;&lt;/font&gt;" style="rounded=1;whiteSpace=wrap;html=1;strokeWidth=0;strokeColor=#FF2453;fillColor=#C7467B;" parent="1" vertex="1">
          <mxGeometry x="520" y="230" width="160" height="50" as="geometry" />
        </mxCell>
        <mxCell id="2cpJJtYgyLrUb1EqmkHA-10" value="&lt;div&gt;&lt;b&gt;&lt;font color=&quot;#ffffff&quot;&gt;&lt;font data-font-src=&quot;https://fonts.googleapis.com/css?family=Inter&quot; face=&quot;Inter&quot;&gt;Recette fonctionnelle&lt;br&gt;&lt;/font&gt;&lt;/font&gt;&lt;/b&gt;&lt;/div&gt;" style="rounded=1;whiteSpace=wrap;html=1;strokeWidth=0;strokeColor=#FF2453;fillColor=#FF2453;" parent="1" vertex="1">
          <mxGeometry x="560" y="160" width="160" height="50" as="geometry" />
        </mxCell>
        <mxCell id="2cpJJtYgyLrUb1EqmkHA-18" style="edgeStyle=orthogonalEdgeStyle;rounded=0;orthogonalLoop=1;jettySize=auto;html=1;exitX=1;exitY=0.5;exitDx=0;exitDy=0;entryX=0;entryY=0.5;entryDx=0;entryDy=0;startArrow=block;startFill=1;strokeWidth=3;strokeColor=#C7467B;endArrow=block;endFill=1;" parent="1" source="2cpJJtYgyLrUb1EqmkHA-3" target="2cpJJtYgyLrUb1EqmkHA-9" edge="1">
          <mxGeometry relative="1" as="geometry">
            <mxPoint x="330" y="335" as="sourcePoint" />
            <mxPoint x="490" y="335" as="targetPoint" />
          </mxGeometry>
        </mxCell>
        <mxCell id="2cpJJtYgyLrUb1EqmkHA-19" style="edgeStyle=orthogonalEdgeStyle;rounded=0;orthogonalLoop=1;jettySize=auto;html=1;exitX=1;exitY=0.5;exitDx=0;exitDy=0;entryX=0;entryY=0.5;entryDx=0;entryDy=0;startArrow=block;startFill=1;strokeWidth=3;strokeColor=#5889CB;endArrow=block;endFill=1;" parent="1" source="2cpJJtYgyLrUb1EqmkHA-5" target="2cpJJtYgyLrUb1EqmkHA-7" edge="1">
          <mxGeometry relative="1" as="geometry">
            <mxPoint x="360" y="369.17" as="sourcePoint" />
            <mxPoint x="520" y="369.17" as="targetPoint" />
          </mxGeometry>
        </mxCell>
        <mxCell id="2cpJJtYgyLrUb1EqmkHA-20" value="" style="endArrow=classic;html=1;rounded=0;strokeWidth=2;" parent="1" edge="1">
          <mxGeometry width="50" height="50" relative="1" as="geometry">
            <mxPoint x="-60" y="530" as="sourcePoint" />
            <mxPoint x="840" y="530" as="targetPoint" />
          </mxGeometry>
        </mxCell>
        <mxCell id="2cpJJtYgyLrUb1EqmkHA-21" value="" style="endArrow=classic;html=1;rounded=0;strokeWidth=2;" parent="1" edge="1">
          <mxGeometry width="50" height="50" relative="1" as="geometry">
            <mxPoint x="-80" y="109.16666666666667" as="sourcePoint" />
            <mxPoint x="-80" y="520" as="targetPoint" />
          </mxGeometry>
        </mxCell>
        <mxCell id="2cpJJtYgyLrUb1EqmkHA-23" value="&lt;font size=&quot;1&quot; face=&quot;Inter&quot; color=&quot;#070219&quot;&gt;&lt;b style=&quot;font-size: 14px;&quot;&gt;Temps&lt;/b&gt;&lt;/font&gt;" style="text;whiteSpace=wrap;html=1;" parent="1" vertex="1">
          <mxGeometry x="690" y="490" width="50" height="20" as="geometry" />
        </mxCell>
        <mxCell id="WM-2CvmhfrzhnA-HZVd9-1" value="&lt;div style=&quot;font-size: 9px;&quot; align=&quot;left&quot;&gt;&lt;font style=&quot;font-size: 9px;&quot; data-font-src=&quot;https://fonts.googleapis.com/css?family=Inter&quot; face=&quot;Inter&quot; color=&quot;#070219&quot;&gt;Les besoins du client sont analysés afin de définir les usages du produit&lt;br&gt;&lt;/font&gt;&lt;/div&gt;" style="text;html=1;strokeColor=none;fillColor=none;align=left;verticalAlign=middle;whiteSpace=wrap;rounded=0;" parent="1" vertex="1">
          <mxGeometry x="-60" y="175" width="140" height="20" as="geometry" />
        </mxCell>
        <mxCell id="WM-2CvmhfrzhnA-HZVd9-2" value="&lt;div style=&quot;font-size: 9px;&quot; align=&quot;left&quot;&gt;&lt;font style=&quot;font-size: 9px;&quot; data-font-src=&quot;https://fonts.googleapis.com/css?family=Inter&quot; face=&quot;Inter&quot; color=&quot;#070219&quot;&gt;Cette étape correspond à la rédaction du cahier des charges du produit final&lt;/font&gt;&lt;/div&gt;" style="text;html=1;strokeColor=none;fillColor=none;align=left;verticalAlign=middle;whiteSpace=wrap;rounded=0;" parent="1" vertex="1">
          <mxGeometry x="-40" y="245" width="139" height="20" as="geometry" />
        </mxCell>
        <mxCell id="WM-2CvmhfrzhnA-HZVd9-3" value="&lt;div style=&quot;font-size: 9px;&quot; align=&quot;left&quot;&gt;&lt;font style=&quot;font-size: 9px;&quot; data-font-src=&quot;https://fonts.googleapis.com/css?family=Inter&quot; face=&quot;Inter&quot; color=&quot;#070219&quot;&gt;Traduction technique : décrit l&#39;ensemble des briques du système et des interfaces utilisateurs&lt;br&gt;&lt;/font&gt;&lt;/div&gt;" style="text;html=1;strokeColor=none;fillColor=none;align=left;verticalAlign=middle;whiteSpace=wrap;rounded=0;" parent="1" vertex="1">
          <mxGeometry x="-10" y="315" width="160" height="20" as="geometry" />
        </mxCell>
        <mxCell id="WM-2CvmhfrzhnA-HZVd9-4" value="&lt;div style=&quot;font-size: 9px;&quot; align=&quot;left&quot;&gt;&lt;font style=&quot;font-size: 9px;&quot; data-font-src=&quot;https://fonts.googleapis.com/css?family=Inter&quot; face=&quot;Inter&quot; color=&quot;#070219&quot;&gt;Elle peut être un début de code ou une documentation. Définition de chaque brique fonctionnelle. &lt;br&gt;&lt;/font&gt;&lt;/div&gt;" style="text;html=1;strokeColor=none;fillColor=none;align=left;verticalAlign=middle;whiteSpace=wrap;rounded=0;" parent="1" vertex="1">
          <mxGeometry x="30" y="385" width="150" height="20" as="geometry" />
        </mxCell>
        <mxCell id="WM-2CvmhfrzhnA-HZVd9-5" value="&lt;div style=&quot;font-size: 9px;&quot; align=&quot;left&quot;&gt;&lt;font style=&quot;font-size: 9px;&quot; data-font-src=&quot;https://fonts.googleapis.com/css?family=Inter&quot; face=&quot;Inter&quot; color=&quot;#070219&quot;&gt;Les briques sont créées puis assemblées afin de créer le produit final&lt;br&gt;&lt;/font&gt;&lt;/div&gt;" style="text;html=1;strokeColor=none;fillColor=none;align=left;verticalAlign=middle;whiteSpace=wrap;rounded=0;" parent="1" vertex="1">
          <mxGeometry x="180" y="475" width="150" height="20" as="geometry" />
        </mxCell>
        <mxCell id="WM-2CvmhfrzhnA-HZVd9-6" value="&lt;div style=&quot;font-size: 10px;&quot; align=&quot;left&quot;&gt;&lt;font style=&quot;font-size: 10px;&quot; data-font-src=&quot;https://fonts.googleapis.com/css?family=Inter&quot; face=&quot;Inter&quot;&gt;Vérifier que le système est conforme à l&#39;analyse&lt;/font&gt;&lt;font style=&quot;font-size: 10px;&quot; data-font-src=&quot;https://fonts.googleapis.com/css?family=Inter&quot; face=&quot;Inter&quot;&gt;&lt;br&gt;&lt;/font&gt;&lt;/div&gt;" style="text;html=1;strokeColor=none;fillColor=none;align=left;verticalAlign=middle;whiteSpace=wrap;rounded=0;" parent="1" vertex="1">
          <mxGeometry x="730" y="175" width="120" height="20" as="geometry" />
        </mxCell>
        <mxCell id="WM-2CvmhfrzhnA-HZVd9-7" value="&lt;div style=&quot;font-size: 9px;&quot; align=&quot;left&quot;&gt;&lt;font style=&quot;font-size: 9px;&quot; data-font-src=&quot;https://fonts.googleapis.com/css?family=Inter&quot; face=&quot;Inter&quot;&gt;Vérifier que le système répond aux besoins&lt;br&gt;&lt;/font&gt;&lt;/div&gt;" style="text;html=1;strokeColor=none;fillColor=none;align=left;verticalAlign=middle;whiteSpace=wrap;rounded=0;" parent="1" vertex="1">
          <mxGeometry x="690" y="245" width="120" height="20" as="geometry" />
        </mxCell>
        <mxCell id="gHOOQsIfZRAReZfFeO4b-1" value="&lt;div style=&quot;font-size: 9px;&quot; align=&quot;left&quot;&gt;&lt;font style=&quot;font-size: 9px;&quot; data-font-src=&quot;https://fonts.googleapis.com/css?family=Inter&quot; face=&quot;Inter&quot; color=&quot;#070219&quot;&gt;Tester des composants ou des sous-systèmes de bas niveau&lt;br&gt;&lt;/font&gt;&lt;/div&gt;" style="text;html=1;strokeColor=none;fillColor=none;align=left;verticalAlign=middle;whiteSpace=wrap;rounded=0;" parent="1" vertex="1">
          <mxGeometry x="610" y="385" width="150" height="20" as="geometry" />
        </mxCell>
        <mxCell id="gHOOQsIfZRAReZfFeO4b-2" value="&lt;div style=&quot;font-size: 9px;&quot; align=&quot;left&quot;&gt;&lt;font style=&quot;font-size: 9px;&quot; data-font-src=&quot;https://fonts.googleapis.com/css?family=Inter&quot; face=&quot;Inter&quot; color=&quot;#070219&quot;&gt;Tester le bon fonctionnement des sous-systèmes entre eux&lt;br&gt;&lt;/font&gt;&lt;/div&gt;" style="text;html=1;strokeColor=none;fillColor=none;align=left;verticalAlign=middle;whiteSpace=wrap;rounded=0;" parent="1" vertex="1">
          <mxGeometry x="650" y="315" width="140" height="20" as="geometry" />
        </mxCell>
        <mxCell id="gHOOQsIfZRAReZfFeO4b-4" value="&lt;font size=&quot;1&quot; face=&quot;Inter&quot; color=&quot;#070219&quot;&gt;&lt;b style=&quot;font-size: 14px;&quot;&gt;Détails&lt;/b&gt;&lt;/font&gt;" style="text;whiteSpace=wrap;html=1;" parent="1" vertex="1">
          <mxGeometry x="-70" y="470" width="50" height="20" as="geometry" />
        </mxCell>
      </root>
    </mxGraphModel>
  </diagram>
  <diagram id="oATvkq3J0zmydbqbwU7m" name="relations-ensembles">
    <mxGraphModel dx="1537" dy="1854" grid="1" gridSize="10" guides="1" tooltips="1" connect="1" arrows="1" fold="1" page="1" pageScale="1" pageWidth="827" pageHeight="1169" math="1" shadow="0">
      <root>
        <mxCell id="0" />
        <mxCell id="1" parent="0" />
        <mxCell id="YGxn7HLtL5C6qN7ZlAWG-1" value="" style="rounded=0;whiteSpace=wrap;html=1;" vertex="1" parent="1">
          <mxGeometry x="90" y="-10" width="330" height="220" as="geometry" />
        </mxCell>
        <mxCell id="YGxn7HLtL5C6qN7ZlAWG-2" value="" style="ellipse;whiteSpace=wrap;html=1;aspect=fixed;fillColor=none;" vertex="1" parent="1">
          <mxGeometry x="120" y="20" width="160" height="160" as="geometry" />
        </mxCell>
        <mxCell id="YGxn7HLtL5C6qN7ZlAWG-3" value="" style="ellipse;whiteSpace=wrap;html=1;aspect=fixed;fillColor=none;" vertex="1" parent="1">
          <mxGeometry x="230" y="20" width="160" height="160" as="geometry" />
        </mxCell>
        <mxCell id="YGxn7HLtL5C6qN7ZlAWG-4" value="&lt;font style=&quot;font-size: 19px;&quot;&gt;A&lt;/font&gt;" style="text;html=1;strokeColor=none;fillColor=none;align=center;verticalAlign=middle;whiteSpace=wrap;rounded=0;" vertex="1" parent="1">
          <mxGeometry x="143" y="85" width="60" height="30" as="geometry" />
        </mxCell>
        <mxCell id="YGxn7HLtL5C6qN7ZlAWG-5" value="&lt;font style=&quot;font-size: 19px;&quot;&gt;B&lt;/font&gt;" style="text;html=1;strokeColor=none;fillColor=none;align=center;verticalAlign=middle;whiteSpace=wrap;rounded=0;" vertex="1" parent="1">
          <mxGeometry x="300" y="85" width="60" height="30" as="geometry" />
        </mxCell>
        <mxCell id="YGxn7HLtL5C6qN7ZlAWG-6" value="&lt;font style=&quot;font-size: 19px;&quot;&gt;E&lt;/font&gt;" style="text;html=1;strokeColor=none;fillColor=none;align=center;verticalAlign=middle;whiteSpace=wrap;rounded=0;" vertex="1" parent="1">
          <mxGeometry x="90" y="-10" width="51" height="34" as="geometry" />
        </mxCell>
        <mxCell id="YGxn7HLtL5C6qN7ZlAWG-45" value="&lt;font style=&quot;font-size: 20px;&quot;&gt;`A \cup B`&lt;/font&gt;" style="text;html=1;strokeColor=none;fillColor=none;align=center;verticalAlign=middle;whiteSpace=wrap;rounded=0;" vertex="1" parent="1">
          <mxGeometry x="225" y="-48" width="60" height="30" as="geometry" />
        </mxCell>
        <mxCell id="YGxn7HLtL5C6qN7ZlAWG-46" value="" style="rounded=0;whiteSpace=wrap;html=1;" vertex="1" parent="1">
          <mxGeometry x="480" y="-10" width="330" height="220" as="geometry" />
        </mxCell>
        <mxCell id="YGxn7HLtL5C6qN7ZlAWG-47" value="" style="ellipse;whiteSpace=wrap;html=1;aspect=fixed;fillColor=none;" vertex="1" parent="1">
          <mxGeometry x="510" y="20" width="160" height="160" as="geometry" />
        </mxCell>
        <mxCell id="YGxn7HLtL5C6qN7ZlAWG-48" value="" style="ellipse;whiteSpace=wrap;html=1;aspect=fixed;fillColor=none;" vertex="1" parent="1">
          <mxGeometry x="620" y="20" width="160" height="160" as="geometry" />
        </mxCell>
        <mxCell id="YGxn7HLtL5C6qN7ZlAWG-49" value="&lt;font style=&quot;font-size: 19px;&quot;&gt;A&lt;/font&gt;" style="text;html=1;strokeColor=none;fillColor=none;align=center;verticalAlign=middle;whiteSpace=wrap;rounded=0;" vertex="1" parent="1">
          <mxGeometry x="533" y="85" width="60" height="30" as="geometry" />
        </mxCell>
        <mxCell id="YGxn7HLtL5C6qN7ZlAWG-50" value="&lt;font style=&quot;font-size: 19px;&quot;&gt;B&lt;/font&gt;" style="text;html=1;strokeColor=none;fillColor=none;align=center;verticalAlign=middle;whiteSpace=wrap;rounded=0;" vertex="1" parent="1">
          <mxGeometry x="690" y="85" width="60" height="30" as="geometry" />
        </mxCell>
        <mxCell id="YGxn7HLtL5C6qN7ZlAWG-51" value="&lt;font style=&quot;font-size: 19px;&quot;&gt;E&lt;/font&gt;" style="text;html=1;strokeColor=none;fillColor=none;align=center;verticalAlign=middle;whiteSpace=wrap;rounded=0;" vertex="1" parent="1">
          <mxGeometry x="480" y="-10" width="51" height="34" as="geometry" />
        </mxCell>
        <mxCell id="YGxn7HLtL5C6qN7ZlAWG-52" value="&lt;div&gt;&lt;font style=&quot;font-size: 20px;&quot;&gt;`A \cap B`&lt;/font&gt;&lt;/div&gt;" style="text;html=1;strokeColor=none;fillColor=none;align=center;verticalAlign=middle;whiteSpace=wrap;rounded=0;" vertex="1" parent="1">
          <mxGeometry x="615" y="-48" width="60" height="30" as="geometry" />
        </mxCell>
        <mxCell id="YGxn7HLtL5C6qN7ZlAWG-53" value="" style="rounded=0;whiteSpace=wrap;html=1;" vertex="1" parent="1">
          <mxGeometry x="90" y="270" width="330" height="220" as="geometry" />
        </mxCell>
        <mxCell id="YGxn7HLtL5C6qN7ZlAWG-54" value="" style="ellipse;whiteSpace=wrap;html=1;aspect=fixed;fillColor=none;" vertex="1" parent="1">
          <mxGeometry x="120" y="300" width="160" height="160" as="geometry" />
        </mxCell>
        <mxCell id="YGxn7HLtL5C6qN7ZlAWG-55" value="" style="ellipse;whiteSpace=wrap;html=1;aspect=fixed;fillColor=none;" vertex="1" parent="1">
          <mxGeometry x="230" y="300" width="160" height="160" as="geometry" />
        </mxCell>
        <mxCell id="YGxn7HLtL5C6qN7ZlAWG-56" value="&lt;font style=&quot;font-size: 19px;&quot;&gt;A&lt;/font&gt;" style="text;html=1;strokeColor=none;fillColor=none;align=center;verticalAlign=middle;whiteSpace=wrap;rounded=0;" vertex="1" parent="1">
          <mxGeometry x="143" y="365" width="60" height="30" as="geometry" />
        </mxCell>
        <mxCell id="YGxn7HLtL5C6qN7ZlAWG-57" value="&lt;font style=&quot;font-size: 19px;&quot;&gt;B&lt;/font&gt;" style="text;html=1;strokeColor=none;fillColor=none;align=center;verticalAlign=middle;whiteSpace=wrap;rounded=0;" vertex="1" parent="1">
          <mxGeometry x="300" y="365" width="60" height="30" as="geometry" />
        </mxCell>
        <mxCell id="YGxn7HLtL5C6qN7ZlAWG-58" value="&lt;font style=&quot;font-size: 19px;&quot;&gt;E&lt;/font&gt;" style="text;html=1;strokeColor=none;fillColor=none;align=center;verticalAlign=middle;whiteSpace=wrap;rounded=0;" vertex="1" parent="1">
          <mxGeometry x="90" y="270" width="51" height="34" as="geometry" />
        </mxCell>
        <mxCell id="YGxn7HLtL5C6qN7ZlAWG-59" value="&lt;div&gt;&lt;font style=&quot;font-size: 20px;&quot;&gt;`A \setminus B`&lt;/font&gt;&lt;/div&gt;" style="text;html=1;strokeColor=none;fillColor=none;align=center;verticalAlign=middle;whiteSpace=wrap;rounded=0;" vertex="1" parent="1">
          <mxGeometry x="225" y="232" width="60" height="30" as="geometry" />
        </mxCell>
        <mxCell id="YGxn7HLtL5C6qN7ZlAWG-60" value="" style="rounded=0;whiteSpace=wrap;html=1;" vertex="1" parent="1">
          <mxGeometry x="480" y="270" width="330" height="220" as="geometry" />
        </mxCell>
        <mxCell id="YGxn7HLtL5C6qN7ZlAWG-61" value="" style="ellipse;whiteSpace=wrap;html=1;aspect=fixed;fillColor=none;" vertex="1" parent="1">
          <mxGeometry x="510" y="300" width="160" height="160" as="geometry" />
        </mxCell>
        <mxCell id="YGxn7HLtL5C6qN7ZlAWG-62" value="" style="ellipse;whiteSpace=wrap;html=1;aspect=fixed;fillColor=none;" vertex="1" parent="1">
          <mxGeometry x="620" y="300" width="160" height="160" as="geometry" />
        </mxCell>
        <mxCell id="YGxn7HLtL5C6qN7ZlAWG-63" value="&lt;font style=&quot;font-size: 19px;&quot;&gt;A&lt;/font&gt;" style="text;html=1;strokeColor=none;fillColor=none;align=center;verticalAlign=middle;whiteSpace=wrap;rounded=0;" vertex="1" parent="1">
          <mxGeometry x="533" y="365" width="60" height="30" as="geometry" />
        </mxCell>
        <mxCell id="YGxn7HLtL5C6qN7ZlAWG-64" value="&lt;font style=&quot;font-size: 19px;&quot;&gt;B&lt;/font&gt;" style="text;html=1;strokeColor=none;fillColor=none;align=center;verticalAlign=middle;whiteSpace=wrap;rounded=0;" vertex="1" parent="1">
          <mxGeometry x="690" y="365" width="60" height="30" as="geometry" />
        </mxCell>
        <mxCell id="YGxn7HLtL5C6qN7ZlAWG-65" value="&lt;font style=&quot;font-size: 19px;&quot;&gt;E&lt;/font&gt;" style="text;html=1;strokeColor=none;fillColor=none;align=center;verticalAlign=middle;whiteSpace=wrap;rounded=0;" vertex="1" parent="1">
          <mxGeometry x="480" y="270" width="51" height="34" as="geometry" />
        </mxCell>
        <mxCell id="YGxn7HLtL5C6qN7ZlAWG-66" value="&lt;font style=&quot;font-size: 20px;&quot;&gt;`\bar{A}`&lt;br&gt;&lt;/font&gt;" style="text;html=1;strokeColor=none;fillColor=none;align=center;verticalAlign=middle;whiteSpace=wrap;rounded=0;" vertex="1" parent="1">
          <mxGeometry x="615" y="232" width="60" height="30" as="geometry" />
        </mxCell>
      </root>
    </mxGraphModel>
  </diagram>
</mxfile>
